<svg width="26" height="32" fill="none" xmlns="http://www.w3.org/2000/svg"><g fill="#004293"><path d="M13 14a5.2 5.2 0 100 10.4A5.2 5.2 0 0013 14z"/><path fill-rule="evenodd" clip-rule="evenodd" d="M.2 12.8c0-6.034 0-9.051 1.875-10.925C3.949 0 6.966 0 13 0c6.034 0 9.051 0 10.926 1.875C25.8 3.749 25.8 6.766 25.8 12.8v6.4c0 6.034 0 9.051-1.874 10.925C22.05 32 19.034 32 13 32s-9.05 0-10.925-1.875C.2 28.252.2 25.234.2 19.2v-6.4zm5.2 6.4a7.6 7.6 0 1115.2 0 7.6 7.6 0 01-15.2 0zm4.4-14a1.2 1.2 0 000 2.4h6.4a1.2 1.2 0 000-2.4H9.8z"/></g></svg>