<svg width="48" height="48" fill="none" xmlns="http://www.w3.org/2000/svg"><path fill-rule="evenodd" clip-rule="evenodd" d="M20.148 9.92c-.39.332-.585.498-.793.638a4.342 4.342 0 01-1.576.653c-.245.048-.5.069-1.01.11-1.283.102-1.924.153-2.46.342a4.34 4.34 0 00-2.646 2.647c-.19.535-.24 1.176-.343 2.458-.04.51-.06.766-.11 1.011a4.342 4.342 0 01-.652 1.576c-.14.208-.306.403-.638.793-.834.979-1.251 1.468-1.496 1.98a4.34 4.34 0 000 3.744c.245.512.662 1.001 1.496 1.98.332.39.498.585.638.793.32.477.542 1.012.653 1.576.048.245.069.5.11 1.01.102 1.283.153 1.924.342 2.46a4.34 4.34 0 002.647 2.646c.535.19 1.176.24 2.458.343.51.04.766.06 1.011.11a4.342 4.342 0 011.576.652c.208.14.403.306.793.638.979.834 1.468 1.251 1.98 1.496a4.341 4.341 0 003.744 0c.512-.245 1.001-.662 1.98-1.496.39-.332.585-.498.793-.638a4.342 4.342 0 011.576-.653c.245-.048.5-.069 1.01-.11 1.283-.102 1.924-.153 2.46-.342a4.34 4.34 0 002.646-2.647c.19-.535.24-1.176.343-2.458.04-.51.06-.766.11-1.011a4.342 4.342 0 01.652-1.576c.14-.208.306-.403.638-.793.834-.979 1.251-1.468 1.496-1.98a4.341 4.341 0 000-3.744c-.245-.512-.662-1.001-1.496-1.98-.332-.39-.498-.585-.638-.793a4.342 4.342 0 01-.653-1.576c-.048-.245-.069-.5-.11-1.01-.102-1.283-.153-1.924-.342-2.46a4.34 4.34 0 00-2.647-2.646c-.535-.19-1.176-.24-2.458-.343-.51-.04-.766-.06-1.011-.11a4.342 4.342 0 01-1.576-.652c-.208-.14-.403-.306-.793-.638-.979-.834-1.468-1.251-1.98-1.496a4.34 4.34 0 00-3.744 0c-.512.245-1.001.662-1.98 1.496zm10.85 10.661a1.302 1.302 0 10-1.842-1.841l-7.76 7.76-2.552-2.552a1.302 1.302 0 10-1.842 1.842l3.473 3.472a1.302 1.302 0 001.841 0l8.682-8.681z" fill="#004293"/></svg>