<svg width="48" height="48" fill="none" xmlns="http://www.w3.org/2000/svg"><path fill-rule="evenodd" clip-rule="evenodd" d="M40 24c0 8.837-7.163 16-16 16-2.56 0-4.979-.601-7.124-1.67-.57-.283-1.222-.378-1.837-.213l-3.562.953c-1.546.413-2.96-1.001-2.547-2.547l.953-3.562c.165-.615.07-1.267-.213-1.837A15.934 15.934 0 018 24c0-8.837 7.163-16 16-16s16 7.163 16 16zm-23.2-1.427c0 2.19 2.11 4.487 4.046 6.134 1.318 1.121 1.977 1.682 3.154 1.682 1.177 0 1.836-.56 3.154-1.682 1.936-1.647 4.046-3.944 4.046-6.134 0-4.283-3.96-5.882-7.2-2.573-3.24-3.31-7.2-1.71-7.2 2.573z" fill="#004293"/></svg>