<svg width="24" height="24" viewBox="0 0 24 24" fill="none" xmlns="http://www.w3.org/2000/svg">
<g id="burger menu">
<g id="Vector">
<path d="M3.70443 3.7955C4.14377 3.35616 4.85608 3.35616 5.29542 3.7955L20.675 19.1751C21.1143 19.6144 21.1143 20.3267 20.675 20.7661C20.2357 21.2054 19.5233 21.2054 19.084 20.7661L3.70443 5.38649C3.26509 4.94715 3.26509 4.23483 3.70443 3.7955Z" fill="#004293"/>
<path d="M20.675 3.7955C20.2357 3.35616 19.5233 3.35616 19.084 3.7955L3.70443 19.1751C3.26509 19.6144 3.26509 20.3267 3.70443 20.7661C4.14377 21.2054 4.85608 21.2054 5.29542 20.7661L20.675 5.38649C21.1143 4.94715 21.1143 4.23484 20.675 3.7955Z" fill="#004293"/>
</g>
</g>
</svg>
